<mxfile host="Electron" modified="2024-05-08T17:21:12.160Z" agent="Mozilla/5.0 (Windows NT 10.0; Win64; x64) AppleWebKit/537.36 (KHTML, like Gecko) draw.io/22.1.16 Chrome/120.0.6099.109 Electron/28.1.0 Safari/537.36" etag="tR1s91nfDwMWpJsHR_aG" version="22.1.16" type="device">
  <diagram name="Page-1" id="13e1069c-82ec-6db2-03f1-153e76fe0fe0">
    <mxGraphModel dx="1235" dy="731" grid="1" gridSize="10" guides="1" tooltips="1" connect="1" arrows="1" fold="1" page="1" pageScale="1" pageWidth="1100" pageHeight="850" background="none" math="0" shadow="0">
      <root>
        <mxCell id="0" />
        <mxCell id="1" parent="0" />
        <mxCell id="7baba1c4bc27f4b0-2" value="AdminView" style="shape=umlLifeline;perimeter=lifelinePerimeter;whiteSpace=wrap;html=1;container=1;collapsible=0;recursiveResize=0;outlineConnect=0;rounded=0;shadow=0;comic=0;labelBackgroundColor=none;strokeWidth=1;fontFamily=Verdana;fontSize=12;align=center;fillColor=#dae8fc;strokeColor=#6c8ebf;" parent="1" vertex="1">
          <mxGeometry x="220" y="120" width="135" height="360" as="geometry" />
        </mxCell>
        <mxCell id="7baba1c4bc27f4b0-10" value="" style="html=1;points=[];perimeter=orthogonalPerimeter;rounded=0;shadow=0;comic=0;labelBackgroundColor=none;strokeWidth=1;fontFamily=Verdana;fontSize=12;align=center;" parent="7baba1c4bc27f4b0-2" vertex="1">
          <mxGeometry x="62.5" y="96" width="10" height="110" as="geometry" />
        </mxCell>
        <mxCell id="BazkxacqFKndKwqCTscp-36" value="" style="endArrow=open;dashed=1;html=1;dashPattern=1 3;strokeWidth=2;rounded=0;endFill=0;" parent="7baba1c4bc27f4b0-2" source="Tgv9cBTI27cX0pnWbjZV-3" edge="1">
          <mxGeometry width="50" height="50" relative="1" as="geometry">
            <mxPoint x="222.20000000000005" y="298.8845" as="sourcePoint" />
            <mxPoint x="-84" y="301" as="targetPoint" />
          </mxGeometry>
        </mxCell>
        <mxCell id="BazkxacqFKndKwqCTscp-41" value="return" style="text;html=1;strokeColor=none;fillColor=none;align=center;verticalAlign=middle;whiteSpace=wrap;rounded=0;" parent="7baba1c4bc27f4b0-2" vertex="1">
          <mxGeometry x="72.5" y="276" width="60" height="30" as="geometry" />
        </mxCell>
        <mxCell id="7baba1c4bc27f4b0-8" value="Admin" style="shape=umlLifeline;perimeter=lifelinePerimeter;whiteSpace=wrap;html=1;container=1;collapsible=0;recursiveResize=0;outlineConnect=0;rounded=0;shadow=0;comic=0;labelBackgroundColor=none;strokeWidth=1;fontFamily=Verdana;fontSize=12;align=center;glass=0;fillColor=#dae8fc;strokeColor=#6c8ebf;" parent="1" vertex="1">
          <mxGeometry x="80" y="120" width="100" height="360" as="geometry" />
        </mxCell>
        <mxCell id="7baba1c4bc27f4b0-9" value="" style="html=1;points=[];perimeter=orthogonalPerimeter;rounded=0;shadow=0;comic=0;labelBackgroundColor=none;strokeWidth=1;fontFamily=Verdana;fontSize=12;align=center;" parent="7baba1c4bc27f4b0-8" vertex="1">
          <mxGeometry x="45" y="96" width="10" height="264" as="geometry" />
        </mxCell>
        <mxCell id="7baba1c4bc27f4b0-11" value="insertFilm()" style="html=1;verticalAlign=bottom;endArrow=block;entryX=0;entryY=0;labelBackgroundColor=none;fontFamily=Verdana;fontSize=12;edgeStyle=elbowEdgeStyle;elbow=vertical;" parent="1" edge="1">
          <mxGeometry relative="1" as="geometry">
            <mxPoint x="135" y="228" as="sourcePoint" />
            <mxPoint x="275" y="228" as="targetPoint" />
          </mxGeometry>
        </mxCell>
        <mxCell id="7baba1c4bc27f4b0-40" value="UC5: Gestione del catalogo" style="shape=note;whiteSpace=wrap;html=1;size=7;verticalAlign=top;align=left;spacingTop=-6;rounded=0;shadow=0;comic=0;labelBackgroundColor=none;strokeWidth=1;fontFamily=Verdana;fontSize=12;fillColor=#fff2cc;strokeColor=#d6b656;" parent="1" vertex="1">
          <mxGeometry width="130" height="35" as="geometry" />
        </mxCell>
        <mxCell id="BazkxacqFKndKwqCTscp-32" value="AdminView&lt;br&gt;Controller" style="shape=umlLifeline;perimeter=lifelinePerimeter;whiteSpace=wrap;html=1;container=1;collapsible=0;recursiveResize=0;outlineConnect=0;rounded=0;shadow=0;comic=0;labelBackgroundColor=none;strokeWidth=1;fontFamily=Verdana;fontSize=12;align=center;fillColor=#dae8fc;strokeColor=#6c8ebf;" parent="1" vertex="1">
          <mxGeometry x="390" y="120" width="120" height="360" as="geometry" />
        </mxCell>
        <mxCell id="BazkxacqFKndKwqCTscp-33" value="" style="html=1;points=[];perimeter=orthogonalPerimeter;rounded=0;shadow=0;comic=0;labelBackgroundColor=none;strokeWidth=1;fontFamily=Verdana;fontSize=12;align=center;" parent="BazkxacqFKndKwqCTscp-32" vertex="1">
          <mxGeometry x="55" y="110" width="10" height="156.5" as="geometry" />
        </mxCell>
        <mxCell id="7baba1c4bc27f4b0-14" value="switchPage()" style="html=1;verticalAlign=bottom;endArrow=block;labelBackgroundColor=none;fontFamily=Verdana;fontSize=12;edgeStyle=elbowEdgeStyle;elbow=horizontal;" parent="1" edge="1">
          <mxGeometry relative="1" as="geometry">
            <mxPoint x="294" y="260" as="sourcePoint" />
            <mxPoint x="444" y="260" as="targetPoint" />
          </mxGeometry>
        </mxCell>
        <mxCell id="Tgv9cBTI27cX0pnWbjZV-3" value="Film" style="shape=umlLifeline;perimeter=lifelinePerimeter;whiteSpace=wrap;html=1;container=1;collapsible=0;recursiveResize=0;outlineConnect=0;rounded=0;shadow=0;comic=0;labelBackgroundColor=none;strokeWidth=1;fontFamily=Verdana;fontSize=12;align=center;fillColor=#dae8fc;strokeColor=#6c8ebf;" parent="1" vertex="1">
          <mxGeometry x="550" y="120" width="100" height="360" as="geometry" />
        </mxCell>
        <mxCell id="Tgv9cBTI27cX0pnWbjZV-4" value="" style="html=1;points=[];perimeter=orthogonalPerimeter;rounded=0;shadow=0;comic=0;labelBackgroundColor=none;strokeWidth=1;fontFamily=Verdana;fontSize=12;align=center;" parent="Tgv9cBTI27cX0pnWbjZV-3" vertex="1">
          <mxGeometry x="45" y="150" width="10" height="170" as="geometry" />
        </mxCell>
        <mxCell id="Tgv9cBTI27cX0pnWbjZV-5" value="addFilm(title,&lt;br&gt;rating,duration,price)" style="html=1;verticalAlign=bottom;endArrow=block;entryX=0;entryY=0;labelBackgroundColor=none;fontFamily=Verdana;fontSize=12;edgeStyle=elbowEdgeStyle;elbow=vertical;" parent="1" edge="1">
          <mxGeometry y="5" relative="1" as="geometry">
            <mxPoint x="454" y="295" as="sourcePoint" />
            <mxPoint x="594" y="295" as="targetPoint" />
            <mxPoint as="offset" />
          </mxGeometry>
        </mxCell>
        <mxCell id="2VVt0VqgWsPlny88vjTO-1" value="&amp;nbsp;una volta nella view di admin, ci sarà il bottone gestisci catalogo che apre a un&#39;altra view&amp;nbsp;&lt;br&gt;con tutte i film disponibili e i bottoni aggiungi/rimuovi film.&lt;br&gt;il bottono aggiungi film sarà associato a un metodo che crea l&#39;istanza&amp;nbsp;&lt;br&gt;di film e l&#39;aggiunge al DB, per fare ciò si apre un&#39;altra view con una tabella di testo con tutte le info&amp;nbsp;&lt;br&gt;del film e in fondo il bottono aggiungi film. in particoalre si passano ad admin i dati necessari&lt;br&gt;a scrivere tale film nel DB.&amp;nbsp;&lt;br&gt;" style="text;html=1;align=center;verticalAlign=middle;resizable=0;points=[];autosize=1;strokeColor=none;fillColor=none;" parent="1" vertex="1">
          <mxGeometry x="630" y="300" width="550" height="100" as="geometry" />
        </mxCell>
        <mxCell id="yhQ6tqrIVfhbON9A6vyN-1" value="(le verifiche sulla mail e la passwoird vanno fattte a livello di DAO)" style="text;html=1;align=center;verticalAlign=middle;resizable=0;points=[];autosize=1;strokeColor=none;fillColor=none;" parent="1" vertex="1">
          <mxGeometry x="700" y="410" width="370" height="30" as="geometry" />
        </mxCell>
        <mxCell id="shawrSEJFTEpB6xBzmXT-1" value="AdminView" style="shape=umlLifeline;perimeter=lifelinePerimeter;whiteSpace=wrap;html=1;container=1;collapsible=0;recursiveResize=0;outlineConnect=0;rounded=0;shadow=0;comic=0;labelBackgroundColor=none;strokeWidth=1;fontFamily=Verdana;fontSize=12;align=center;fillColor=#dae8fc;strokeColor=#6c8ebf;" vertex="1" parent="1">
          <mxGeometry x="220" y="520" width="135" height="360" as="geometry" />
        </mxCell>
        <mxCell id="shawrSEJFTEpB6xBzmXT-2" value="" style="html=1;points=[];perimeter=orthogonalPerimeter;rounded=0;shadow=0;comic=0;labelBackgroundColor=none;strokeWidth=1;fontFamily=Verdana;fontSize=12;align=center;" vertex="1" parent="shawrSEJFTEpB6xBzmXT-1">
          <mxGeometry x="62.5" y="96" width="10" height="110" as="geometry" />
        </mxCell>
        <mxCell id="shawrSEJFTEpB6xBzmXT-3" value="" style="endArrow=open;dashed=1;html=1;dashPattern=1 3;strokeWidth=2;rounded=0;endFill=0;" edge="1" parent="shawrSEJFTEpB6xBzmXT-1" source="shawrSEJFTEpB6xBzmXT-11">
          <mxGeometry width="50" height="50" relative="1" as="geometry">
            <mxPoint x="222.20000000000005" y="298.8845" as="sourcePoint" />
            <mxPoint x="-84" y="301" as="targetPoint" />
          </mxGeometry>
        </mxCell>
        <mxCell id="shawrSEJFTEpB6xBzmXT-4" value="return" style="text;html=1;strokeColor=none;fillColor=none;align=center;verticalAlign=middle;whiteSpace=wrap;rounded=0;" vertex="1" parent="shawrSEJFTEpB6xBzmXT-1">
          <mxGeometry x="72.5" y="276" width="60" height="30" as="geometry" />
        </mxCell>
        <mxCell id="shawrSEJFTEpB6xBzmXT-5" value="Admin" style="shape=umlLifeline;perimeter=lifelinePerimeter;whiteSpace=wrap;html=1;container=1;collapsible=0;recursiveResize=0;outlineConnect=0;rounded=0;shadow=0;comic=0;labelBackgroundColor=none;strokeWidth=1;fontFamily=Verdana;fontSize=12;align=center;glass=0;fillColor=#dae8fc;strokeColor=#6c8ebf;" vertex="1" parent="1">
          <mxGeometry x="80" y="520" width="100" height="360" as="geometry" />
        </mxCell>
        <mxCell id="shawrSEJFTEpB6xBzmXT-6" value="" style="html=1;points=[];perimeter=orthogonalPerimeter;rounded=0;shadow=0;comic=0;labelBackgroundColor=none;strokeWidth=1;fontFamily=Verdana;fontSize=12;align=center;" vertex="1" parent="shawrSEJFTEpB6xBzmXT-5">
          <mxGeometry x="45" y="96" width="10" height="264" as="geometry" />
        </mxCell>
        <mxCell id="shawrSEJFTEpB6xBzmXT-7" value="removeFilm()" style="html=1;verticalAlign=bottom;endArrow=block;entryX=0;entryY=0;labelBackgroundColor=none;fontFamily=Verdana;fontSize=12;edgeStyle=elbowEdgeStyle;elbow=vertical;" edge="1" parent="1">
          <mxGeometry relative="1" as="geometry">
            <mxPoint x="135" y="628" as="sourcePoint" />
            <mxPoint x="275" y="628" as="targetPoint" />
          </mxGeometry>
        </mxCell>
        <mxCell id="shawrSEJFTEpB6xBzmXT-8" value="AdminView&lt;br&gt;Controller" style="shape=umlLifeline;perimeter=lifelinePerimeter;whiteSpace=wrap;html=1;container=1;collapsible=0;recursiveResize=0;outlineConnect=0;rounded=0;shadow=0;comic=0;labelBackgroundColor=none;strokeWidth=1;fontFamily=Verdana;fontSize=12;align=center;fillColor=#dae8fc;strokeColor=#6c8ebf;" vertex="1" parent="1">
          <mxGeometry x="390" y="520" width="120" height="360" as="geometry" />
        </mxCell>
        <mxCell id="shawrSEJFTEpB6xBzmXT-9" value="" style="html=1;points=[];perimeter=orthogonalPerimeter;rounded=0;shadow=0;comic=0;labelBackgroundColor=none;strokeWidth=1;fontFamily=Verdana;fontSize=12;align=center;" vertex="1" parent="shawrSEJFTEpB6xBzmXT-8">
          <mxGeometry x="55" y="110" width="10" height="156.5" as="geometry" />
        </mxCell>
        <mxCell id="shawrSEJFTEpB6xBzmXT-10" value="switchPage()" style="html=1;verticalAlign=bottom;endArrow=block;labelBackgroundColor=none;fontFamily=Verdana;fontSize=12;edgeStyle=elbowEdgeStyle;elbow=horizontal;" edge="1" parent="1">
          <mxGeometry relative="1" as="geometry">
            <mxPoint x="294" y="660" as="sourcePoint" />
            <mxPoint x="444" y="660" as="targetPoint" />
          </mxGeometry>
        </mxCell>
        <mxCell id="shawrSEJFTEpB6xBzmXT-11" value="Film" style="shape=umlLifeline;perimeter=lifelinePerimeter;whiteSpace=wrap;html=1;container=1;collapsible=0;recursiveResize=0;outlineConnect=0;rounded=0;shadow=0;comic=0;labelBackgroundColor=none;strokeWidth=1;fontFamily=Verdana;fontSize=12;align=center;fillColor=#dae8fc;strokeColor=#6c8ebf;" vertex="1" parent="1">
          <mxGeometry x="550" y="520" width="100" height="360" as="geometry" />
        </mxCell>
        <mxCell id="shawrSEJFTEpB6xBzmXT-12" value="" style="html=1;points=[];perimeter=orthogonalPerimeter;rounded=0;shadow=0;comic=0;labelBackgroundColor=none;strokeWidth=1;fontFamily=Verdana;fontSize=12;align=center;" vertex="1" parent="shawrSEJFTEpB6xBzmXT-11">
          <mxGeometry x="45" y="150" width="10" height="170" as="geometry" />
        </mxCell>
        <mxCell id="shawrSEJFTEpB6xBzmXT-13" value="removeFilm(title)" style="html=1;verticalAlign=bottom;endArrow=block;entryX=0;entryY=0;labelBackgroundColor=none;fontFamily=Verdana;fontSize=12;edgeStyle=elbowEdgeStyle;elbow=vertical;" edge="1" parent="1">
          <mxGeometry y="5" relative="1" as="geometry">
            <mxPoint x="454" y="695" as="sourcePoint" />
            <mxPoint x="594" y="695" as="targetPoint" />
            <mxPoint as="offset" />
          </mxGeometry>
        </mxCell>
      </root>
    </mxGraphModel>
  </diagram>
</mxfile>
